<?xml version="1.0" encoding="utf-8"?>
<!-- Generator: Adobe Illustrator 23.1.0, SVG Export Plug-In . SVG Version: 6.00 Build 0)  -->
<svg version="1.1" id="Layer_1" xmlns="http://www.w3.org/2000/svg" xmlns:xlink="http://www.w3.org/1999/xlink" x="0px" y="0px"
	 viewBox="0 0 430 406" style="enable-background:new 0 0 430 406;" xml:space="preserve">
<style type="text/css">
	.st0{fill:#2D2D2D;}
</style>
<g>
	<path class="st0" d="M288.05,113.62c-9.15-0.01-16.2,7.22-16.14,16.57c0.05,8.75,7.68,16.28,16.32,16.1
		c8.96-0.18,15.91-7.39,15.87-16.45C304.05,120.81,296.95,113.63,288.05,113.62z"/>
	<path class="st0" d="M215.26,132.74c-39.4,0.23-70.41,31.65-70.23,71.17c0.17,37.88,31.73,69.09,69.73,68.97
		c39.6-0.12,70.35-31.21,70.24-70.99C284.88,164.26,252.88,132.52,215.26,132.74z M214.43,248.43
		c-24.93-0.01-45.36-21.4-44.77-46.01c0.62-26.04,21.07-45.73,46.69-44.97c24.84,0.74,44.33,21.07,44.08,45.6
		C260.16,228.1,240.47,248.45,214.43,248.43z"/>
	<path class="st0" d="M215,16C111.72,16,28,99.72,28,203s83.72,187,187,187s187-83.72,187-187S318.28,16,215,16z M325.9,262.2
		c-0.84,16.17-5.73,30.65-19.34,41.01c-8.85,6.74-19.08,9.47-29.78,10.24c-41.41,2.96-82.85,2.98-124.26-0.07
		c-15.21-1.12-28.44-6.71-38-19.19c-7.17-9.36-9.73-20.39-10.35-31.8c-2.17-39.77-2.15-79.57-0.01-119.34
		c0.89-16.57,6.28-31.26,20.53-41.41c10.51-7.48,22.71-9.11,35.03-10.08c18.45-1.46,36.95-1.06,55.44-0.91
		c21.14,0.08,42.3-0.84,63.38,1.75c15.12,1.86,28.2,7.17,37.57,19.99c6.8,9.31,9.12,19.95,9.73,30.97
		C328.05,182.97,327.96,222.6,325.9,262.2z"/>
</g>
</svg>
