<?xml version="1.0" encoding="utf-8"?>
<!-- Generator: Adobe Illustrator 23.1.0, SVG Export Plug-In . SVG Version: 6.00 Build 0)  -->
<svg version="1.1" id="Layer_1" xmlns="http://www.w3.org/2000/svg" xmlns:xlink="http://www.w3.org/1999/xlink" x="0px" y="0px"
	 viewBox="0 0 1366 768" style="enable-background:new 0 0 1366 768;" xml:space="preserve">
<style type="text/css">
	.st0{fill:#2D2D2D;}
</style>
<g>
	<path class="st0" d="M635.21,453.81c40.99-23.27,81.24-46.12,122.07-69.3c-41.12-23.42-81.38-46.35-122.07-69.53
		C635.21,361.48,635.21,407.12,635.21,453.81z"/>
	<path class="st0" d="M683,98.47c-157.69,0-285.53,127.83-285.53,285.53S525.31,669.53,683,669.53S968.53,541.69,968.53,384
		S840.69,98.47,683,98.47z M908.95,487.68c-1.95,11.68-6,22.4-13.7,31.68c-10.87,13.08-25.18,19.27-41.56,21.4
		c-30.1,3.92-60.39,5.08-90.68,6.05c-38.81,1.24-77.64,1.57-116.47,0.97c-35.49-0.55-70.97-1.43-106.36-4.17
		c-13.42-1.04-27.06-1.27-40.03-5.28c-24.91-7.7-38.95-25.15-43.11-50.59c-6.28-38.43-7.71-77.18-7.14-116.04
		c0.19-13.32,1.15-26.63,1.47-39.95c0.46-19.36,3.01-38.47,7.25-57.28c5.82-25.81,25.51-43.1,51.71-46.71
		c27.43-3.79,55.03-5.23,82.67-6.04c27.31-0.79,54.63-1.4,68.47-1.75c50.31-0.26,87.13,0.81,123.92,2.12
		c23.09,0.82,46.17,2.22,69.1,5.52c29.97,4.31,49.82,23.53,54.49,53.48c7.14,45.76,8.38,91.81,6.46,138.02
		C914.46,442.09,912.74,464.98,908.95,487.68z"/>
</g>
</svg>
